<svg width="22" height="37" viewBox="0 0 22 37" fill="none" xmlns="http://www.w3.org/2000/svg">
<rect width="22" height="37" fill="#1E1E1E"/>
<g id="home">
<rect x="-201.959" y="-411.959" width="430" height="932" rx="40" fill="#00D09E"/>
<g id="Food">
<path id="Vector" d="M2.26327 2.23547L1.04138 13.3435C1.04503 14.2284 1.31071 15.0923 1.80496 15.8262C2.2992 16.5602 2.99985 17.1313 3.81839 17.4674L2.97125 32.5465C2.95443 33.2034 3.19846 33.8402 3.64991 34.3177C4.10136 34.7952 4.72365 35.0745 5.38046 35.0944C6.03726 35.0745 6.65938 34.7952 7.11083 34.3177C7.56229 33.8402 7.80631 33.2034 7.78949 32.5465L7.21321 17.4674C8.03228 17.132 8.73346 16.5612 9.22783 15.827C9.72219 15.0929 9.98748 14.2286 9.99021 13.3435L8.99748 2.23547M5.50535 2.61038V14.0794M19.7097 17.2591C19.3092 17.3127 18.9436 17.5155 18.6861 17.827C18.4287 18.1385 18.2984 18.5357 18.3212 18.9392L19.085 32.5535C19.1018 33.2104 18.8577 33.8472 18.4063 34.3247C17.9548 34.8021 17.3326 35.0814 16.6757 35.1014C16.0189 35.0814 15.3968 34.8021 14.9454 34.3247C14.4939 33.8472 14.2499 33.2104 14.2667 32.5535L14.8013 18.3005C14.8115 18.0375 14.7697 17.7751 14.6779 17.5284C14.5862 17.2818 14.4463 17.0557 14.2667 16.8634V1.04138C14.2667 1.04138 22.2159 1.37461 19.6889 17.2591H19.7097Z" stroke="#093030" stroke-width="2.08276" stroke-linecap="round" stroke-linejoin="round"/>
</g>
</g>
</svg>
